<?xml version="1.0" standalone="no"?>
<!DOCTYPE svg PUBLIC "-//W3C//DTD SVG 20010904//EN"
 "http://www.w3.org/TR/2001/REC-SVG-20010904/DTD/svg10.dtd">
<svg version="1.0" xmlns="http://www.w3.org/2000/svg"
 width="1404" height="2096" viewBox="0 0 2808.000000 4192.000000"
 preserveAspectRatio="xMidYMid meet">
<metadata>
Created by potrace 1.16, written by Peter Selinger 2001-2019
</metadata>
<g transform="translate(0.000000,4192.000000) scale(0.100000,-0.100000)"
fill="#00B4FF" stroke="none">
<path d="M130 41906 c0 -14 -86 -56 -114 -56 -15 0 -16 -1193 -16 -12788 l0
-12789 82 -12 c64 -9 455 -12 1669 -9 1515 3 1588 4 1607 21 11 10 25 38 31
62 8 32 11 3519 11 12745 0 11410 -2 12705 -15 12734 -9 18 -29 43 -45 55 -17
12 -30 28 -30 36 0 13 -198 15 -1590 15 -1343 0 -1590 -2 -1590 -14z"/>
<path d="M17162 41893 c-7 -16 -19 -39 -27 -53 -13 -22 -15 -643 -15 -5072 0
-5035 0 -5048 -20 -5068 -19 -19 -33 -20 -223 -20 -248 0 -237 -6 -237 126 -1
113 -11 159 -47 196 -27 28 -28 33 -33 163 -4 115 -8 137 -26 162 -44 59 -48
77 -54 216 l-7 138 -34 35 -34 35 -5 138 -5 139 -35 48 c-35 49 -35 49 -41
189 -4 77 -7 141 -8 142 -1 1 -15 16 -33 32 l-32 30 -6 144 c-4 121 -8 147
-25 171 -49 69 -55 83 -55 124 0 53 -14 82 -40 82 -25 0 -40 -29 -40 -77 0
-36 -8 -52 -53 -116 -10 -14 -23 -56 -28 -93 -8 -59 -14 -72 -44 -100 -31 -28
-35 -37 -35 -81 0 -45 -4 -53 -40 -86 -37 -32 -40 -40 -40 -85 0 -42 -5 -56
-34 -91 -27 -32 -37 -56 -46 -112 -10 -58 -18 -76 -46 -104 -30 -30 -34 -41
-34 -84 0 -45 -4 -52 -36 -79 -30 -25 -36 -37 -44 -91 -6 -46 -16 -70 -38 -96
-23 -25 -33 -50 -42 -103 -9 -58 -18 -77 -46 -106 -29 -30 -34 -42 -34 -84 0
-44 -4 -52 -40 -85 -37 -32 -40 -40 -40 -85 0 -42 -5 -56 -34 -91 -27 -32 -37
-56 -46 -110 -9 -57 -18 -76 -46 -105 -29 -30 -34 -42 -34 -82 0 -41 -5 -52
-40 -90 -31 -34 -40 -51 -40 -79 0 -40 -11 -66 -45 -107 -14 -17 -27 -53 -35
-94 -9 -54 -18 -76 -46 -106 -28 -32 -34 -46 -34 -84 0 -41 -5 -53 -40 -90
-32 -35 -40 -51 -40 -82 0 -74 14 -72 -442 -72 -467 0 -432 -8 -441 101 -2 37
-11 80 -20 95 -8 16 -23 45 -33 64 -14 27 -19 68 -24 181 -5 106 -11 154 -23
177 -10 18 -25 47 -34 64 -12 24 -19 71 -23 174 -5 101 -11 149 -23 172 -10
18 -25 47 -34 64 -12 24 -19 71 -23 175 -7 137 -8 146 -40 206 -32 59 -34 68
-40 208 -6 141 -8 148 -40 204 -32 56 -33 62 -40 209 -4 100 -12 160 -21 178
-8 14 -23 41 -33 59 -15 27 -21 63 -26 179 -4 107 -10 153 -23 178 -9 17 -25
47 -34 64 -12 24 -19 71 -23 174 -5 101 -11 149 -23 172 -10 18 -25 47 -34 64
-12 24 -19 72 -24 179 -6 142 -17 190 -42 188 -7 0 -36 -27 -64 -60 -50 -55
-53 -62 -53 -111 0 -71 -14 -116 -46 -149 -23 -24 -28 -41 -35 -111 -4 -46 -8
-86 -8 -90 -1 -3 -17 -25 -36 -48 -31 -37 -35 -48 -35 -98 0 -69 -16 -131 -36
-139 -25 -9 -37 -45 -44 -131 -6 -75 -10 -86 -39 -116 -29 -30 -33 -41 -40
-117 -8 -82 -22 -129 -41 -129 -18 0 -30 -40 -39 -125 -7 -73 -13 -91 -35
-114 -32 -33 -46 -78 -46 -147 0 -38 -6 -61 -24 -87 -43 -62 -49 -80 -56 -153
-6 -57 -14 -83 -44 -130 -29 -49 -36 -69 -36 -112 0 -58 -20 -115 -52 -149
-16 -17 -23 -41 -28 -102 -5 -53 -13 -89 -26 -107 -50 -70 -54 -80 -54 -134 0
-73 -12 -110 -46 -147 -16 -16 -37 -42 -47 -57 l-18 -26 -688 0 c-781 0 -715
8 -723 -88 -3 -34 -12 -61 -25 -75 -42 -46 -47 -68 -53 -253 -5 -147 -9 -186
-23 -205 -9 -13 -24 -35 -34 -47 -13 -19 -18 -57 -23 -200 -6 -181 -8 -193
-53 -254 -19 -25 -21 -48 -26 -210 l-6 -183 -35 -60 -34 -60 -6 -175 -6 -175
-34 -54 -34 -53 -6 -177 c-5 -169 -6 -179 -31 -217 -40 -61 -41 -68 -48 -256
-7 -166 -9 -179 -32 -215 -39 -59 -41 -67 -48 -248 -6 -142 -10 -176 -27 -204
-10 -18 -25 -45 -33 -60 -10 -18 -16 -77 -20 -196 l-6 -170 -34 -59 -35 -60
-5 -176 c-6 -171 -7 -178 -33 -216 -37 -54 -47 -108 -48 -259 0 -185 -14 -221
-93 -240 -48 -12 -59 35 -67 280 -6 193 -8 214 -29 255 -39 74 -43 97 -50 310
-6 181 -9 210 -28 250 -43 89 -46 105 -53 315 l-6 210 -34 75 -33 75 -7 205
c-6 205 -6 205 -40 280 l-33 75 -7 210 c-5 173 -9 216 -24 244 -43 82 -48 113
-55 326 l-7 210 -34 75 -34 75 -6 205 c-5 194 -7 208 -33 265 -40 89 -46 134
-47 310 -1 166 0 162 -55 305 -14 35 -19 91 -24 250 -6 182 -9 210 -28 250
-43 88 -45 106 -52 315 -7 189 -10 215 -30 260 -40 88 -43 106 -51 310 -7 196
-8 202 -40 280 -33 79 -33 84 -40 280 -5 149 -11 211 -24 243 -9 23 -23 61
-32 85 -12 31 -19 95 -24 242 -7 196 -8 202 -40 280 -33 79 -33 83 -41 285 -7
209 -10 227 -50 315 -20 45 -23 72 -29 255 -7 202 -8 206 -40 285 -33 79 -34
83 -40 280 -7 197 -7 201 -40 280 -32 79 -33 84 -40 285 -8 209 -11 228 -51
315 -20 45 -23 72 -30 255 -8 213 -11 237 -49 310 -22 41 -24 63 -31 250 -5
157 -11 216 -24 250 -55 144 -54 140 -55 295 0 180 -11 256 -47 325 -26 51
-27 59 -34 270 l-6 218 -33 69 -33 68 -7 210 -7 210 -34 75 -33 75 -7 205 c-4
113 -12 220 -17 237 -20 62 -71 123 -102 123 -32 0 -40 -46 -40 -223 0 -200
-10 -273 -47 -353 -27 -58 -28 -64 -34 -304 -5 -199 -9 -253 -24 -290 -56
-144 -54 -136 -55 -330 0 -221 -11 -303 -47 -373 -27 -52 -27 -54 -33 -307
l-6 -255 -34 -70 -34 -70 -6 -255 -6 -256 -34 -69 -34 -70 -6 -256 -6 -257
-34 -63 -34 -64 -6 -255 -6 -255 -34 -70 -34 -70 -5 -261 -6 -260 -35 -65 -34
-64 -6 -261 -5 -261 -35 -64 -34 -64 -6 -256 -5 -256 -34 -64 -35 -64 -5 -265
c-5 -217 -9 -270 -22 -295 -57 -106 -54 -83 -59 -360 l-5 -260 -35 -60 -35
-60 -5 -260 -5 -260 -35 -65 -35 -65 -5 -260 -6 -260 -35 -64 -34 -65 -5 -260
c-3 -144 -10 -270 -15 -281 -5 -11 -20 -38 -34 -59 -26 -39 -26 -41 -31 -305
l-5 -266 -31 -55 c-17 -30 -37 -73 -44 -95 -22 -68 -40 -81 -62 -42 -9 15 -15
85 -18 217 -4 165 -8 200 -22 220 -10 14 -26 36 -35 49 -15 21 -19 55 -23 226
-5 212 -2 198 -57 274 -15 20 -18 56 -23 222 -5 180 -7 200 -26 226 -46 62
-48 72 -54 274 -5 194 -5 196 -33 236 -41 59 -47 93 -47 263 0 170 -6 204 -47
263 -28 40 -28 42 -33 238 l-5 197 -34 49 -35 48 -6 201 c-5 167 -9 205 -23
225 -9 13 -25 35 -34 48 -14 19 -18 57 -23 220 -5 191 -6 199 -31 237 -41 63
-42 70 -48 269 l-6 190 -35 60 -34 60 -6 190 c-6 195 -8 206 -53 267 -18 25
-21 49 -27 228 -5 179 -8 203 -26 227 -45 61 -47 74 -54 275 -6 197 -12 228
-46 228 -7 0 -16 -9 -19 -21 -4 -12 -23 -39 -42 -60 -42 -46 -52 -86 -53 -200
0 -81 -2 -89 -30 -124 -39 -49 -50 -92 -50 -196 0 -76 -3 -90 -25 -120 -41
-57 -47 -79 -54 -195 -6 -100 -10 -116 -34 -151 -37 -54 -47 -93 -47 -188 0
-67 -4 -86 -25 -120 -43 -71 -48 -88 -54 -196 -6 -97 -9 -109 -40 -158 -32
-49 -35 -61 -41 -159 -3 -63 -12 -118 -21 -133 -7 -15 -23 -42 -33 -60 -15
-26 -21 -62 -26 -147 -6 -106 -9 -115 -39 -157 -31 -43 -33 -53 -41 -158 -8
-116 -16 -144 -51 -188 -17 -21 -22 -47 -28 -142 -6 -81 -13 -124 -25 -139 -9
-13 -23 -33 -32 -45 -11 -15 -18 -59 -24 -142 -8 -113 -10 -123 -41 -165 -30
-43 -32 -52 -39 -165 -8 -114 -10 -122 -41 -165 -31 -44 -33 -52 -39 -161 -5
-98 -9 -119 -28 -142 -37 -47 -45 -74 -51 -181 -9 -156 49 -142 -570 -142
-396 0 -522 -3 -541 -13 l-25 -13 -3 -214 c-3 -237 3 -280 43 -298 19 -9 218
-12 740 -12 635 0 715 2 729 16 9 8 16 17 16 19 0 2 5 39 11 81 8 60 18 88 41
120 27 38 30 51 38 162 8 115 10 124 41 167 31 43 33 51 39 160 5 93 10 120
26 142 40 55 47 79 54 191 6 90 11 119 27 140 40 55 47 79 53 183 5 99 8 110
40 160 32 51 34 61 40 169 6 116 15 146 53 188 18 19 22 41 28 135 11 196 46
224 83 67 8 -34 27 -80 42 -102 28 -39 28 -42 34 -243 6 -166 10 -208 23 -227
9 -13 25 -34 34 -47 14 -19 18 -57 23 -222 6 -189 8 -199 31 -236 41 -62 42
-70 49 -263 l5 -185 35 -60 35 -60 5 -186 5 -185 35 -65 34 -64 6 -196 c5
-162 9 -200 23 -220 9 -13 25 -35 34 -48 14 -20 18 -57 23 -222 5 -179 8 -201
26 -226 46 -63 48 -73 54 -268 5 -164 8 -195 25 -224 11 -18 27 -45 35 -60 11
-19 16 -73 20 -216 6 -196 7 -205 54 -268 19 -26 22 -47 27 -225 6 -201 10
-223 51 -275 22 -27 23 -40 28 -231 l6 -202 34 -43 35 -43 5 -202 c4 -171 8
-206 22 -226 10 -14 26 -36 35 -49 15 -21 19 -55 23 -225 l5 -201 35 -49 35
-48 5 -197 5 -197 35 -54 35 -54 5 -196 c4 -130 9 -202 18 -217 29 -52 51 -12
62 113 7 79 13 102 42 151 l33 58 5 265 c4 210 8 270 20 291 8 15 24 42 35 60
17 31 20 60 25 299 5 239 8 268 25 299 11 18 27 45 35 60 11 20 16 83 20 292
5 264 5 266 31 305 14 21 29 48 34 59 5 11 11 140 14 287 6 257 7 267 29 297
43 59 46 78 51 352 l6 265 28 43 c39 58 47 121 47 366 l0 210 37 75 38 75 5
260 5 260 35 64 35 64 5 261 6 261 34 70 34 69 6 256 6 255 34 70 34 70 6 250
6 250 34 75 34 75 5 250 c6 245 7 251 33 305 14 30 30 64 34 75 4 11 10 135
14 275 6 241 7 258 29 300 40 75 43 97 50 350 l7 245 34 75 33 75 6 250 c6
229 8 254 28 295 44 90 45 103 53 355 l7 250 30 65 c26 54 33 86 42 190 13
138 21 182 38 187 24 8 36 -67 42 -272 l6 -210 34 -69 34 -69 7 -216 7 -216
33 -70 34 -69 6 -211 6 -210 33 -75 34 -75 6 -210 c6 -201 7 -212 33 -265 40
-84 40 -82 47 -300 7 -205 7 -205 41 -280 l33 -75 7 -205 c5 -185 8 -210 29
-255 40 -86 43 -105 50 -320 7 -188 10 -215 30 -260 40 -87 43 -105 50 -310 6
-178 10 -205 30 -250 40 -87 43 -105 51 -310 7 -196 8 -202 40 -280 33 -79 33
-83 40 -285 5 -154 11 -216 23 -247 10 -24 24 -62 33 -85 13 -32 19 -95 24
-243 7 -196 8 -202 40 -280 32 -78 33 -84 40 -280 7 -196 7 -202 40 -280 32
-78 33 -84 40 -280 4 -110 11 -209 15 -220 4 -11 19 -49 33 -85 23 -59 26 -83
32 -270 6 -157 12 -216 25 -250 55 -145 54 -139 55 -296 0 -172 10 -240 47
-321 25 -55 27 -70 34 -263 6 -203 6 -206 39 -280 32 -74 33 -78 41 -280 8
-210 11 -229 50 -315 21 -45 24 -69 29 -260 l7 -210 33 -75 34 -75 6 -205 7
-205 33 -75 c34 -75 34 -75 41 -280 7 -213 11 -236 50 -310 21 -42 24 -60 29
-262 l6 -217 39 -76 c58 -113 61 -115 155 -115 88 0 101 7 120 67 7 21 26 63
43 93 31 54 31 59 38 225 4 118 10 179 20 196 8 15 23 42 33 60 16 28 21 63
26 204 8 174 13 203 52 256 20 27 23 44 29 208 l6 178 34 59 33 59 6 175 6
175 34 60 35 60 6 176 5 177 34 53 34 53 7 175 c6 179 9 194 53 254 18 24 21
48 27 210 6 185 11 210 51 260 21 26 23 41 29 205 6 183 10 202 53 267 25 37
26 43 26 189 0 166 6 200 47 259 27 39 28 44 34 223 5 175 6 183 30 216 40 53
42 63 48 253 l6 180 35 49 35 48 5 182 c5 150 9 187 23 207 9 13 25 35 34 48
15 21 19 55 23 205 6 186 9 202 55 265 24 33 25 39 25 198 0 173 2 181 55 268
24 38 25 47 25 206 0 127 3 170 14 185 14 18 36 19 706 24 670 5 692 6 706 24
8 11 14 33 14 48 0 32 25 88 40 88 19 0 34 47 40 128 6 76 10 86 39 116 29 30
34 42 38 103 6 98 10 109 44 141 29 27 31 35 36 116 6 81 8 91 39 128 19 22
34 43 35 46 0 4 4 44 8 90 7 70 12 87 35 111 31 32 46 78 46 138 0 52 18 93
41 93 25 0 32 -24 38 -135 6 -88 10 -108 40 -165 33 -62 34 -71 41 -210 7
-145 10 -159 57 -245 12 -22 19 -69 23 -175 5 -116 11 -152 26 -179 10 -18 25
-45 33 -59 9 -17 17 -78 21 -173 7 -141 8 -148 40 -204 32 -56 33 -63 40 -205
8 -165 18 -196 80 -237 l33 -23 763 0 c715 0 765 1 779 18 8 9 32 37 53 62 32
36 42 58 52 113 7 41 21 79 35 95 35 42 45 68 45 112 0 36 6 46 40 77 36 33
40 41 40 85 0 40 5 54 34 85 26 29 36 53 44 102 6 35 19 75 29 89 46 64 53 80
53 120 0 38 5 48 40 79 36 33 40 41 40 85 0 41 5 54 35 86 24 27 36 52 40 83
8 55 34 129 46 129 16 0 39 59 39 101 0 35 6 46 40 78 36 32 40 42 40 83 0 31
6 53 20 69 l20 24 20 -24 c14 -17 20 -38 20 -76 0 -39 6 -61 25 -89 51 -75 55
-90 55 -205 0 -122 9 -156 48 -188 26 -21 27 -24 32 -161 5 -139 5 -140 39
-187 25 -35 35 -61 41 -112 5 -36 13 -70 20 -77 8 -8 129 -13 398 -16 429 -6
419 -4 447 -73 13 -33 15 -384 15 -3083 0 -3371 6 -3100 -65 -3130 -20 -8 -84
-21 -143 -30 -122 -16 -125 -17 -207 -49 -33 -13 -98 -29 -145 -35 -47 -7
-113 -23 -148 -37 -34 -13 -109 -33 -167 -43 -58 -10 -133 -30 -167 -43 -35
-14 -97 -30 -138 -37 -41 -7 -100 -25 -131 -40 -30 -16 -84 -34 -119 -40 -35
-6 -89 -24 -120 -40 -31 -16 -85 -34 -120 -40 -35 -6 -89 -24 -119 -40 -31
-15 -83 -33 -116 -40 -33 -6 -76 -22 -96 -35 -20 -13 -63 -31 -95 -41 -33 -9
-87 -32 -122 -50 -35 -19 -74 -34 -87 -34 -13 0 -53 -16 -88 -34 -36 -19 -91
-42 -123 -50 -32 -8 -69 -24 -83 -34 -15 -10 -51 -27 -81 -36 -30 -10 -73 -30
-95 -45 -22 -16 -62 -35 -88 -44 -26 -9 -62 -28 -78 -42 -17 -14 -43 -28 -57
-31 -15 -3 -56 -23 -92 -44 -36 -21 -76 -41 -90 -45 -14 -4 -39 -18 -56 -31
-17 -13 -53 -32 -80 -42 -27 -10 -71 -33 -98 -50 -28 -18 -55 -32 -62 -32 -6
0 -34 -15 -60 -33 -27 -18 -68 -41 -91 -51 -23 -10 -50 -27 -60 -38 -9 -10
-35 -27 -58 -37 -23 -10 -61 -32 -85 -50 -24 -17 -48 -31 -55 -31 -7 0 -31
-14 -55 -31 -24 -18 -62 -40 -85 -50 -23 -10 -50 -28 -60 -39 -10 -11 -39 -30
-63 -40 -24 -11 -60 -33 -78 -50 -19 -16 -39 -30 -44 -30 -6 0 -27 -15 -47
-34 -21 -18 -56 -43 -79 -54 -22 -11 -46 -28 -54 -37 -8 -9 -32 -26 -54 -37
-22 -11 -48 -31 -58 -44 -10 -12 -29 -26 -41 -30 -12 -3 -48 -26 -80 -50 -33
-24 -64 -44 -69 -44 -6 0 -28 -15 -49 -32 -21 -18 -61 -51 -89 -73 -28 -22
-67 -54 -88 -71 -20 -17 -53 -41 -72 -54 -19 -13 -46 -34 -60 -47 -14 -13 -52
-46 -85 -73 -33 -27 -71 -60 -85 -72 -14 -13 -41 -35 -60 -48 -19 -13 -53 -39
-75 -58 -68 -59 -208 -185 -251 -227 -23 -22 -98 -94 -168 -160 -163 -155
-223 -214 -321 -321 -44 -47 -112 -121 -152 -163 -39 -42 -82 -89 -94 -106
-13 -16 -56 -68 -97 -115 -96 -112 -124 -144 -177 -210 -24 -30 -57 -71 -73
-90 -16 -19 -37 -48 -48 -65 -10 -16 -32 -46 -49 -67 -16 -20 -50 -61 -75 -92
-25 -31 -59 -74 -76 -94 -17 -20 -39 -53 -49 -72 -10 -19 -31 -51 -46 -70 -16
-19 -29 -40 -29 -47 0 -6 -13 -24 -29 -40 -16 -16 -39 -49 -51 -74 -13 -24
-34 -57 -47 -74 -28 -35 -66 -88 -90 -129 -10 -16 -37 -54 -60 -86 -24 -32
-43 -63 -43 -69 0 -6 -15 -28 -33 -48 -19 -21 -41 -58 -51 -83 -10 -25 -26
-54 -36 -65 -11 -11 -26 -38 -35 -59 -9 -21 -32 -61 -51 -88 -19 -28 -34 -56
-34 -63 0 -6 -14 -31 -31 -54 -17 -24 -39 -64 -50 -89 -11 -26 -31 -58 -43
-72 -13 -14 -29 -42 -35 -62 -7 -20 -24 -54 -38 -75 -14 -21 -34 -63 -45 -93
-10 -30 -27 -63 -38 -75 -11 -12 -29 -47 -39 -78 -11 -32 -30 -71 -41 -87 -11
-16 -29 -54 -40 -85 -11 -31 -30 -69 -44 -85 -13 -16 -27 -44 -31 -62 -4 -18
-22 -60 -40 -93 -18 -33 -40 -86 -49 -119 -10 -32 -28 -75 -41 -95 -13 -20
-29 -57 -35 -83 -5 -26 -26 -77 -45 -114 -19 -36 -35 -76 -35 -89 0 -13 -15
-52 -34 -87 -19 -36 -41 -92 -50 -126 -8 -34 -26 -83 -40 -110 -13 -26 -30
-77 -37 -112 -6 -36 -24 -90 -40 -121 -15 -30 -33 -84 -39 -119 -6 -35 -22
-85 -36 -112 -13 -26 -33 -86 -44 -133 -11 -47 -29 -103 -40 -124 -10 -22 -28
-88 -39 -149 -10 -61 -29 -132 -40 -158 -12 -27 -28 -89 -37 -139 -8 -49 -28
-124 -43 -165 -17 -44 -36 -121 -45 -185 -8 -61 -22 -131 -30 -155 -26 -79
-35 -123 -46 -225 -6 -55 -17 -125 -26 -155 -8 -30 -21 -77 -29 -103 -7 -27
-19 -99 -25 -160 -6 -62 -22 -167 -36 -233 -23 -120 -37 -227 -49 -394 -4 -47
-17 -139 -30 -205 -28 -145 -32 -193 -45 -500 -6 -132 -17 -307 -25 -390 -23
-242 -38 -673 -37 -1065 0 -386 17 -915 32 -1037 5 -40 14 -166 20 -280 24
-479 31 -563 49 -654 11 -52 25 -153 31 -224 6 -72 15 -181 21 -244 5 -63 21
-171 34 -240 14 -69 31 -184 40 -256 8 -71 24 -161 35 -200 11 -38 29 -144 40
-235 12 -96 30 -197 44 -241 14 -41 30 -113 36 -160 6 -46 22 -115 36 -154 13
-38 33 -125 44 -191 11 -67 29 -142 39 -168 11 -25 29 -92 40 -150 11 -57 29
-123 41 -147 12 -23 30 -84 41 -136 10 -51 28 -111 39 -133 11 -22 29 -83 40
-135 11 -52 29 -113 40 -135 12 -23 30 -76 40 -119 11 -43 31 -98 44 -122 13
-24 29 -69 35 -99 7 -30 25 -80 40 -110 16 -30 34 -80 40 -110 7 -30 24 -80
40 -110 16 -30 34 -79 41 -108 6 -29 22 -67 35 -86 12 -18 32 -63 44 -99 12
-36 31 -76 41 -89 10 -13 28 -53 39 -88 12 -36 32 -80 45 -100 14 -19 30 -55
36 -80 6 -25 24 -65 40 -90 15 -25 35 -68 44 -96 9 -28 28 -66 41 -84 13 -18
31 -54 40 -80 9 -26 25 -56 35 -65 11 -10 29 -42 40 -72 11 -30 31 -69 44 -86
12 -18 30 -53 40 -78 9 -25 27 -61 41 -79 13 -18 30 -49 36 -69 7 -20 27 -58
46 -85 18 -26 33 -54 33 -62 0 -7 14 -29 30 -48 17 -18 39 -54 50 -79 11 -24
27 -50 36 -58 8 -7 27 -36 41 -63 14 -28 33 -60 44 -71 10 -11 27 -41 38 -66
11 -25 30 -54 41 -64 11 -10 30 -39 40 -63 11 -24 33 -60 50 -78 16 -19 30
-39 30 -44 0 -5 17 -29 38 -53 20 -24 45 -57 55 -73 33 -54 86 -129 105 -149
10 -11 27 -33 37 -50 10 -16 30 -42 43 -57 14 -15 35 -43 46 -61 31 -51 87
-126 121 -163 77 -85 239 -274 310 -364 82 -103 130 -154 370 -397 127 -128
240 -243 251 -255 12 -13 45 -43 73 -68 28 -25 67 -58 85 -75 18 -16 64 -55
101 -85 79 -64 330 -279 361 -310 12 -11 50 -39 84 -63 35 -23 80 -53 99 -66
20 -13 53 -38 73 -55 89 -74 230 -177 275 -200 18 -9 36 -22 40 -30 4 -7 31
-25 60 -40 28 -14 54 -30 58 -36 4 -6 28 -21 54 -34 26 -14 53 -32 61 -41 8
-9 37 -28 64 -42 28 -14 67 -39 86 -54 19 -16 40 -29 47 -29 7 0 27 -13 45
-29 18 -15 53 -39 78 -51 25 -13 57 -33 72 -45 15 -13 49 -31 77 -40 27 -8 57
-25 66 -35 10 -11 43 -29 74 -41 31 -11 65 -29 76 -39 11 -10 43 -27 71 -38
29 -10 67 -31 85 -44 19 -14 50 -31 70 -37 20 -6 51 -23 69 -36 19 -14 58 -34
88 -45 30 -12 73 -31 96 -45 22 -13 61 -29 86 -35 25 -6 65 -24 90 -40 25 -15
70 -35 101 -44 31 -8 67 -24 80 -35 14 -11 52 -27 84 -36 33 -10 79 -30 102
-45 24 -15 73 -35 110 -44 38 -10 82 -26 98 -36 17 -10 68 -28 114 -39 46 -12
98 -30 115 -40 17 -11 69 -29 115 -40 47 -12 101 -31 120 -42 19 -11 78 -30
131 -41 52 -11 111 -28 130 -38 33 -16 61 -23 198 -50 29 -5 70 -19 91 -29 21
-11 78 -27 127 -36 49 -9 123 -29 164 -44 41 -16 125 -36 185 -45 61 -9 144
-27 185 -40 41 -13 123 -29 182 -35 58 -7 130 -18 160 -26 29 -8 78 -22 108
-30 30 -8 124 -21 207 -29 84 -9 212 -27 285 -40 73 -14 223 -32 333 -41 110
-8 259 -24 330 -34 170 -26 336 -38 690 -51 945 -34 947 -34 938 -56 -4 -12
89 -14 577 -14 473 0 581 2 577 13 -10 28 274 51 833 67 375 11 481 19 642 45
51 8 164 19 251 25 86 5 229 15 316 20 87 6 208 19 267 30 60 11 201 29 314
40 113 11 259 31 325 44 66 14 185 30 265 36 141 11 234 27 295 50 17 6 96 20
176 31 80 10 171 28 201 38 53 18 102 27 278 50 41 6 104 20 140 31 36 12 117
28 180 36 63 8 160 28 215 44 55 16 138 34 185 40 47 6 130 24 185 40 55 16
136 34 180 40 44 7 112 24 151 40 39 15 106 34 150 40 43 7 106 23 138 37 32
13 103 33 156 43 53 10 124 30 156 43 32 14 95 30 139 37 44 7 106 23 138 36
32 14 100 33 151 43 51 11 111 28 134 40 23 12 80 30 127 41 47 11 104 29 126
41 22 11 81 29 131 39 49 11 105 29 123 40 17 11 68 27 111 36 101 21 111 27
124 72 7 25 10 1875 10 5890 0 5117 -2 5857 -15 5881 -8 16 -22 31 -30 35 -9
3 -1907 6 -4217 6 l-4200 0 -34 -34 -34 -34 0 -1211 0 -1211 33 -20 c32 -20
58 -20 2795 -20 2032 0 2775 -3 2808 -11 33 -9 49 -19 57 -38 9 -20 13 -902
15 -3636 2 -1985 0 -3648 -3 -3693 -8 -101 -20 -116 -102 -131 -32 -6 -98 -24
-148 -40 -49 -17 -126 -35 -170 -41 -44 -6 -118 -24 -165 -40 -47 -15 -121
-33 -165 -40 -44 -6 -119 -24 -166 -40 -47 -16 -130 -35 -185 -41 -54 -6 -136
-22 -182 -35 -46 -14 -116 -29 -155 -34 -40 -5 -108 -14 -152 -20 -44 -6 -109
-20 -145 -31 -36 -11 -132 -29 -215 -39 -82 -11 -172 -26 -200 -34 -71 -21
-158 -33 -325 -46 -80 -6 -212 -22 -295 -35 -153 -25 -281 -36 -650 -55 -115
-6 -302 -20 -415 -31 -467 -44 -1910 -47 -2190 -4 -117 17 -281 32 -512 45
-123 7 -224 19 -325 39 -82 17 -215 35 -298 41 -102 8 -174 20 -225 35 -78 25
-153 39 -255 50 -33 3 -105 19 -160 35 -55 16 -139 34 -188 40 -49 6 -119 23
-160 40 -39 15 -108 34 -152 40 -44 6 -107 22 -140 35 -33 13 -101 33 -150 44
-50 10 -107 29 -126 40 -19 11 -69 29 -110 39 -40 11 -94 29 -119 42 -25 13
-78 31 -119 42 -40 10 -88 27 -106 38 -17 11 -61 27 -96 36 -35 9 -84 29 -109
44 -25 16 -65 34 -90 40 -25 7 -67 24 -95 40 -27 15 -73 35 -102 43 -29 9 -65
25 -80 36 -15 11 -55 30 -88 41 -32 11 -71 31 -85 44 -14 13 -43 29 -65 36
-22 7 -56 25 -76 41 -20 15 -49 31 -64 35 -14 3 -47 21 -73 38 -26 18 -63 38
-82 46 -19 7 -48 23 -65 35 -16 12 -54 34 -82 49 -29 14 -53 31 -53 36 0 5
-24 22 -52 36 -29 15 -69 40 -88 55 -19 16 -40 29 -47 29 -7 0 -30 15 -50 34
-21 18 -48 37 -61 40 -12 4 -41 22 -65 39 -23 18 -55 41 -72 51 -16 11 -36 28
-43 38 -7 10 -30 27 -50 38 -20 12 -57 36 -82 55 -104 80 -133 102 -183 142
-28 23 -70 58 -92 77 -100 87 -132 114 -160 135 -145 109 -594 571 -755 776
-25 31 -58 72 -75 90 -16 18 -52 60 -80 94 -27 34 -61 74 -75 90 -14 15 -37
47 -53 72 -36 58 -69 105 -107 154 -29 37 -66 92 -115 170 -11 18 -35 49 -52
69 -18 20 -33 43 -33 50 0 7 -15 33 -33 57 -18 24 -39 60 -47 79 -8 19 -26 51
-41 70 -14 19 -32 51 -39 70 -7 19 -23 46 -36 60 -12 14 -32 47 -43 73 -11 26
-32 63 -46 81 -14 18 -30 48 -37 67 -6 19 -24 52 -39 74 -15 23 -32 59 -38 82
-6 22 -23 58 -37 79 -15 22 -35 63 -45 92 -10 29 -28 66 -39 82 -11 16 -29 54
-40 85 -11 31 -29 69 -40 85 -12 17 -30 62 -41 100 -11 39 -30 88 -43 108 -14
20 -31 65 -40 99 -8 35 -26 80 -40 100 -13 21 -29 63 -36 93 -7 30 -25 78 -40
105 -16 28 -34 79 -40 114 -6 36 -24 90 -40 120 -15 31 -33 83 -40 116 -7 33
-25 89 -40 126 -16 36 -34 96 -40 133 -6 37 -17 84 -24 104 -8 20 -21 56 -30
79 -9 24 -21 75 -27 115 -6 39 -24 104 -39 142 -16 39 -34 112 -41 161 -6 50
-24 131 -39 180 -15 50 -33 133 -40 185 -7 52 -23 129 -36 171 -24 75 -37 159
-49 299 -4 41 -15 113 -26 160 -33 140 -37 168 -54 366 -9 104 -23 221 -30
259 -27 131 -35 215 -50 522 -9 170 -22 367 -30 438 -40 342 -39 1475 0 1805
8 69 20 217 25 330 15 300 27 434 50 543 11 54 24 150 30 215 23 257 30 311
50 373 11 35 27 125 36 199 8 74 24 171 36 215 30 120 44 183 56 261 6 39 21
93 32 119 12 27 29 98 40 159 10 61 27 134 39 163 11 28 29 96 40 150 11 54
31 121 44 148 14 28 30 82 37 120 7 39 25 99 40 135 16 36 33 91 39 124 6 32
24 81 40 110 16 28 34 76 41 106 7 30 25 78 40 105 15 28 33 74 39 104 6 30
24 77 40 105 16 28 34 74 40 101 7 28 25 70 41 95 15 25 34 65 40 90 7 24 25
63 40 85 16 22 34 60 40 85 6 25 22 61 35 80 14 19 33 61 44 93 11 32 31 71
45 87 13 16 30 46 37 67 6 21 22 52 35 68 12 17 32 52 43 79 12 27 32 61 45
77 14 16 30 45 36 66 7 21 23 49 35 63 13 14 35 50 48 81 14 31 30 59 35 63 6
4 25 34 43 66 17 33 35 60 39 60 4 0 20 26 35 58 15 31 37 68 50 82 12 14 32
44 44 67 11 23 25 45 31 48 6 3 20 25 31 48 12 23 38 61 58 84 72 85 98 119
123 163 14 25 35 54 47 64 12 11 21 24 21 31 0 6 17 30 38 52 20 23 56 66 79
95 113 141 146 180 252 302 63 72 148 165 190 207 42 42 83 85 92 95 10 11 28
28 40 40 13 11 31 29 40 40 10 10 28 28 40 40 13 11 31 28 39 38 21 24 178
172 239 226 28 25 67 59 85 75 18 17 61 53 96 80 34 28 84 68 111 90 27 22 69
56 94 75 25 19 65 51 89 70 24 19 63 47 87 63 86 54 112 72 145 105 19 17 39
32 43 32 5 0 31 17 58 39 27 21 65 47 84 56 19 10 49 31 67 46 18 16 39 29 46
29 7 0 31 14 52 31 22 17 60 41 85 54 25 13 51 31 58 39 8 9 34 25 60 37 25
11 55 29 66 39 11 10 41 28 66 39 25 11 57 29 71 40 13 11 49 31 79 44 30 13
60 31 67 40 7 8 36 24 64 34 27 9 60 28 73 40 12 13 48 32 78 42 31 11 75 31
99 44 24 14 68 32 99 41 31 9 67 24 80 35 13 10 54 28 91 39 37 12 84 32 105
46 21 13 64 31 95 40 32 9 74 27 93 40 20 14 59 29 88 36 28 6 77 24 107 39
30 16 81 34 112 41 32 6 82 24 111 40 29 15 82 34 118 40 35 7 93 25 129 41
88 38 161 47 180 23 13 -15 16 -405 20 -2974 5 -2891 5 -2958 24 -2979 l19
-21 1637 0 c1311 0 1640 3 1654 13 9 7 21 30 26 52 6 24 10 1297 10 3166 l0
3126 21 19 c20 18 38 19 328 16 340 -3 504 -13 693 -42 70 -11 221 -27 335
-35 156 -11 238 -23 328 -44 66 -16 152 -32 190 -36 119 -10 216 -26 310 -50
50 -13 132 -28 183 -34 51 -6 128 -23 170 -36 42 -14 134 -34 204 -45 69 -11
150 -29 180 -40 29 -11 100 -27 157 -36 57 -9 136 -28 175 -44 39 -15 105 -34
146 -40 41 -7 107 -25 145 -40 39 -16 104 -33 145 -40 41 -7 101 -23 133 -36
32 -14 100 -33 153 -44 52 -10 110 -28 128 -40 19 -11 75 -29 126 -40 51 -11
106 -28 124 -39 17 -11 74 -29 125 -40 52 -12 109 -30 127 -40 19 -11 71 -29
117 -40 46 -11 100 -30 120 -41 20 -12 71 -30 112 -41 42 -10 95 -29 118 -43
23 -13 69 -30 102 -36 33 -7 83 -25 110 -40 28 -15 75 -33 105 -40 30 -7 78
-25 105 -40 28 -16 76 -35 107 -43 31 -8 69 -24 85 -35 15 -11 62 -30 103 -42
41 -12 87 -31 101 -41 29 -21 128 -49 170 -49 37 0 56 21 73 80 8 28 26 65 39
82 13 18 30 56 37 83 7 28 25 70 40 95 15 25 35 70 44 101 9 31 25 67 36 80
11 13 29 54 40 90 11 37 28 77 39 90 10 13 28 56 41 94 13 39 31 81 42 94 10
13 26 49 34 80 9 31 29 76 44 101 16 25 34 65 40 90 6 25 23 62 36 83 14 21
34 66 44 101 11 35 29 75 41 90 11 14 29 55 39 91 10 36 28 77 39 92 12 14 29
51 37 82 9 31 29 76 44 101 15 25 35 70 44 101 8 31 25 67 36 82 11 14 29 54
40 90 11 35 28 75 39 88 10 13 28 55 40 92 11 37 30 80 41 95 16 21 20 40 18
73 l-3 44 -76 25 c-42 14 -88 33 -104 43 -15 11 -59 28 -98 38 -39 11 -83 29
-98 39 -15 11 -55 27 -90 36 -34 9 -91 31 -127 50 -35 19 -74 34 -87 34 -13 0
-52 15 -87 33 -35 19 -93 41 -130 50 -37 9 -82 26 -100 36 -18 11 -71 29 -118
41 -47 12 -99 30 -116 41 -17 10 -64 26 -105 35 -41 9 -99 29 -130 45 -30 15
-84 33 -120 39 -35 7 -91 23 -124 37 -33 14 -102 34 -153 44 -50 10 -110 28
-133 39 -22 12 -85 30 -139 40 -54 10 -117 28 -141 40 -23 12 -91 31 -151 41
-59 11 -131 28 -159 39 -27 11 -106 29 -174 40 -68 11 -147 29 -175 40 -28 11
-106 29 -173 40 -67 11 -153 31 -192 44 -42 15 -116 29 -185 36 -63 6 -169 24
-235 40 -66 16 -149 31 -185 35 -124 12 -215 26 -280 46 -63 18 -126 26 -384
49 -66 6 -158 19 -205 29 -106 24 -137 27 -381 46 -107 8 -260 24 -340 35
-230 31 -416 41 -1330 69 -281 8 -309 13 -329 58 -8 17 -11 742 -11 2632 0
2414 1 2610 17 2622 13 12 427 15 2580 19 2550 5 2565 5 2580 25 20 28 16 483
-6 508 -12 15 -215 17 -2571 19 -2498 3 -2558 3 -2579 22 l-21 19 -2 5377 -3
5377 -27 36 c-16 19 -28 40 -28 46 0 8 -481 11 -1628 11 l-1628 0 -12 -27z"/>
</g>
</svg>
